# xmcd
#
# Track frame offsets: 
#        150
#        18673
#        29324
#        47356
#        58803
#        70568
#        78717
#        91994
#        105321
#        116059
#        125698
#        139157
#        151448
#        166231
#        175963
#        185887
#        200172
#        212729
#        225916
#        247159
#
# Disc length: 3516 seconds
#
# Revision: 0
# Processed by: cddbd v1.5.2PL0 Copyright (c) Steve Scherf et al.
# Submitted via: ExactAudioCopy v0.99pb4
#
DISCID=1d0dba14
DTITLE=Various Artist - Groovy Instrumentals
DYEAR=2007
DGENRE=Blues
TTITLE0=The Billy Gibson Band - Hip Hug-Her
TTITLE1=Junior Wells - Cha Cha Cha In Blue
TTITLE2=Jerry Mc Cain - 728 Texas (Where The Action Is)
TTITLE3=Buster Brown - The Madison Shuffle
TTITLE4=The James Harman Band - Wake Up Call
TTITLE5=Raful Neal - Blues on The Moon
TTITLE6=Frank Frost - Harp And Soul
TTITLE7=George Smith - Blues In The Dark
TTITLE8=B. Brown and His Rockin' McVouts - Candied Yams
TTITLE9=Jerry Mc Cain - Midnight Beat
TTITLE10=Frank Frost - Harpin' On It
TTITLE11=Louis Myers - Just Whaling
TTITLE12=Big John Wrencher - Back Porch Boogie
TTITLE13=George Wild Child Butler - The Best Of Wild Child
TTITLE14=Junior Wells - Chitlin Con Carne
TTITLE15=Johnny Dyer - BBQ at J.D.'s
TTITLE16=Rod Piazza and The Mighty Flyers - The Toddle
TTITLE17=Ronnie Earl and The Broadcasters - Jerry Jumps In
TTITLE18=Carey Bell - Easy
TTITLE19=Bernard McGee - California Breeze
EXTD=
EXTT0=
EXTT1=
EXTT2=
EXTT3=
EXTT4=
EXTT5=
EXTT6=
EXTT7=
EXTT8=
EXTT9=
EXTT10=
EXTT11=
EXTT12=
EXTT13=
EXTT14=
EXTT15=
EXTT16=
EXTT17=
EXTT18=
EXTT19=
PLAYORDER=
